<?xml version="1.0" standalone="no"?>
<!DOCTYPE svg PUBLIC "-//W3C//DTD SVG 1.1//EN"
"http://www.w3.org/Graphics/SVG/1.1/DTD/svg11.dtd">

<svg width="260" height="314" view_box="0 0 260 314"
xmlns="http://www.w3.org/2000/svg"
xmlns:link="http://www.w3.org/1999/xlink">\n\n<desc>Généré par Mocodo 2.3.7 le Tue, 05 Jul 2022 07:11:46</desc>

<rect id="frame" x="0" y="0" width="260" height="314" fill="#f7f7f7" stroke="none" stroke-width="0"/>

<!-- Association Deck -->
<line x1="62" y1="237" x2="62" y2="102" stroke="#e08214" stroke-width="2"/>
<text x="67.0" y="161" fill="#542788" font-family="Verdana" font-size="12">0,N</text>
<line x1="199" y1="102" x2="62" y2="102" stroke="#e08214" stroke-width="2"/>
<text x="121" y="119.0" fill="#542788" font-family="Verdana" font-size="12">0,5</text>
<g id="association-Deck">
	<path d="M 101 60 a 14 14 90 0 1 14 14 V 85 h -106 V 74 a 14 14 90 0 1 14 -14" fill="#fdb863" stroke="#fdb863" stroke-width="0"/>
	<path d="M 115 85.0 v 45 a 14 14 90 0 1 -14 14 H 23 a 14 14 90 0 1 -14 -14 V 85.0 H 106" fill="#fee0b6" stroke="#fee0b6" stroke-width="0"/>
	<rect x="9" y="60" width="106" height="84" fill="none" rx="14" stroke="#e08214" stroke-width="2"/>
	<line x1="9" y1="85" x2="115" y2="85" stroke="#e08214" stroke-width="1"/>
	<text x="46" y="77.7" fill="#000000" font-family="Verdana" font-size="12">Deck</text>
	<text x="16" y="102.8" fill="#000000" font-family="Verdana" font-size="12">code_user</text>
	<text x="16" y="119.8" fill="#000000" font-family="Verdana" font-size="12">code_pokemon</text>
	<text x="16" y="136.8" fill="#000000" font-family="Verdana" font-size="12">nom_pokemon</text>
</g>

<!-- Entity Pokemon -->
<g id="entity-Pokemon">
	<g id="frame-Pokemon">
		<rect x="147" y="9" width="104" height="25" fill="#b2abd2" stroke="#b2abd2" stroke-width="0"/>
		<rect x="147" y="34.0" width="104" height="161" fill="#d8daeb" stroke="#d8daeb" stroke-width="0"/>
		<rect x="147" y="9" width="104" height="186" fill="none" stroke="#8073ac" stroke-width="2"/>
		<line x1="147" y1="34" x2="251" y2="34" stroke="#8073ac" stroke-width="1"/>
	</g>
	<text x="171" y="26.7" fill="#000000" font-family="Verdana" font-size="12">Pokemon</text>
	<text x="152" y="51.7" fill="#000000" font-family="Verdana" font-size="12">code_pokemon</text>
	<line x1="152" y1="54" x2="244" y2="54" stroke="#000000" stroke-width="1"/>
	<text x="152" y="68.7" fill="#000000" font-family="Verdana" font-size="12">nom</text>
	<text x="152" y="85.7" fill="#000000" font-family="Verdana" font-size="12">pv</text>
	<text x="152" y="102.8" fill="#000000" font-family="Verdana" font-size="12">attaque</text>
	<text x="152" y="119.8" fill="#000000" font-family="Verdana" font-size="12">défense</text>
	<text x="152" y="136.8" fill="#000000" font-family="Verdana" font-size="12">attaque spécial</text>
	<text x="152" y="153.8" fill="#000000" font-family="Verdana" font-size="12">défense spécial</text>
	<text x="152" y="170.8" fill="#000000" font-family="Verdana" font-size="12">vitesse</text>
	<text x="152" y="187.8" fill="#000000" font-family="Verdana" font-size="12">type</text>
</g>

<!-- Entity user -->
<g id="entity-user">
	<g id="frame-user">
		<rect x="25" y="169" width="74" height="25" fill="#b2abd2" stroke="#b2abd2" stroke-width="0"/>
		<rect x="25" y="194.0" width="74" height="111" fill="#d8daeb" stroke="#d8daeb" stroke-width="0"/>
		<rect x="25" y="169" width="74" height="136" fill="none" stroke="#8073ac" stroke-width="2"/>
		<line x1="25" y1="194" x2="99" y2="194" stroke="#8073ac" stroke-width="1"/>
	</g>
	<text x="48" y="186.7" fill="#000000" font-family="Verdana" font-size="12">user</text>
	<text x="30" y="211.7" fill="#000000" font-family="Verdana" font-size="12">code_user</text>
	<line x1="30" y1="214" x2="93" y2="214" stroke="#000000" stroke-width="1"/>
	<text x="30" y="228.7" fill="#000000" font-family="Verdana" font-size="12">username</text>
	<text x="30" y="245.8" fill="#000000" font-family="Verdana" font-size="12">firstname</text>
	<text x="30" y="262.8" fill="#000000" font-family="Verdana" font-size="12">lastname</text>
	<text x="30" y="279.8" fill="#000000" font-family="Verdana" font-size="12">email</text>
	<text x="30" y="296.8" fill="#000000" font-family="Verdana" font-size="12">password</text>
</g>
</svg>